<svg width="120" height="120" viewBox="0 0 120 120" fill="none" xmlns="http://www.w3.org/2000/svg">
  <!-- Background Circle -->
  <circle cx="60" cy="60" r="55" fill="#ECFDF5" stroke="#D1FAE5" stroke-width="2"/>
  
  <!-- Document Icon -->
  <g transform="translate(35, 30)">
    <!-- Document Base -->
    <path d="M8 0H34C35.1046 0 36 0.895431 36 2V48C36 49.1046 35.1046 50 34 50H8C6.89543 50 6 49.1046 6 48V2C6 0.895431 6.89543 0 8 0Z" fill="#10B981"/>
    
    <!-- Document Lines -->
    <line x1="12" y1="14" x2="30" y2="14" stroke="white" stroke-width="2" stroke-linecap="round"/>
    <line x1="12" y1="21" x2="26" y2="21" stroke="white" stroke-width="2" stroke-linecap="round"/>
    <line x1="12" y1="28" x2="28" y2="28" stroke="white" stroke-width="2" stroke-linecap="round"/>
    <line x1="12" y1="35" x2="24" y2="35" stroke="white" stroke-width="2" stroke-linecap="round"/>
    
    <!-- Checkmark Circle -->
    <circle cx="38" cy="42" r="14" fill="#059669" stroke="white" stroke-width="3"/>
    
    <!-- Checkmark -->
    <path d="M32 42L36 46L44 38" stroke="white" stroke-width="2.5" stroke-linecap="round" stroke-linejoin="round"/>
  </g>
  
  <!-- Decorative Elements -->
  <circle cx="20" cy="25" r="3" fill="#A7F3D0" opacity="0.6"/>
  <circle cx="95" cy="85" r="4" fill="#A7F3D0" opacity="0.6"/>
  <circle cx="100" cy="30" r="2.5" fill="#10B981" opacity="0.5"/>
  <circle cx="15" cy="90" r="2.5" fill="#10B981" opacity="0.5"/>
</svg>
