<svg width="120" height="120" viewBox="0 0 120 120" fill="none" xmlns="http://www.w3.org/2000/svg">
  <!-- Background Circle -->
  <circle cx="60" cy="60" r="55" fill="#FFF4ED" stroke="#FFE4D1" stroke-width="2"/>
  
  <!-- Document Icon -->
  <g transform="translate(35, 35)">
    <!-- Document Base -->
    <path d="M8 0H34C35.1046 0 36 0.895431 36 2V48C36 49.1046 35.1046 50 34 50H8C6.89543 50 6 49.1046 6 48V2C6 0.895431 6.89543 0 8 0Z" fill="#FF6B00"/>
    
    <!-- Document Lines -->
    <line x1="12" y1="15" x2="30" y2="15" stroke="white" stroke-width="2" stroke-linecap="round"/>
    <line x1="12" y1="22" x2="26" y2="22" stroke="white" stroke-width="2" stroke-linecap="round"/>
    <line x1="12" y1="29" x2="28" y2="29" stroke="white" stroke-width="2" stroke-linecap="round"/>
    <line x1="12" y1="36" x2="24" y2="36" stroke="white" stroke-width="2" stroke-linecap="round"/>
    
    <!-- Upload Arrow Circle -->
    <circle cx="38" cy="12" r="14" fill="#10B981" stroke="white" stroke-width="3"/>
    
    <!-- Upload Arrow -->
    <path d="M38 6L38 18M38 6L34 10M38 6L42 10" stroke="white" stroke-width="2.5" stroke-linecap="round" stroke-linejoin="round"/>
  </g>
  
  <!-- Decorative Elements -->
  <circle cx="20" cy="25" r="3" fill="#FFD4A8" opacity="0.6"/>
  <circle cx="95" cy="85" r="4" fill="#FFD4A8" opacity="0.6"/>
  <circle cx="100" cy="30" r="2.5" fill="#10B981" opacity="0.5"/>
  <circle cx="15" cy="90" r="2.5" fill="#10B981" opacity="0.5"/>
</svg>
